<svg xmlns="http://www.w3.org/2000/svg" width="1024" height="1024" viewBox="0 0 1024 1024">
  <rect x="56" y="56" width="912" height="912" rx="208" fill="#fd5108"/>
  <path fill="#ffffff" d="M430.44,566.56 L511.16,592.16 C498.78,637.16 478.2,670.58 449.42,692.42 C420.64,714.27 384.12,725.19 339.88,725.19 C285.13,725.19 240.13,706.48 204.88,669.08 C169.63,631.67 152,580.53 152,515.66 C152,447.03 169.72,393.73 205.16,355.77 C240.59,317.8 287.19,298.81 344.94,298.81 C395.37,298.81 436.34,313.72 467.84,343.53 C486.59,361.16 500.66,386.47 510.03,419.47 L427.63,439.16 C422.75,417.78 412.58,400.91 397.11,388.53 C381.64,376.16 362.84,369.97 340.72,369.97 C310.16,369.97 285.36,380.94 266.33,402.88 C247.3,424.81 237.78,460.34 237.78,509.47 C237.78,561.59 247.16,598.72 265.91,620.84 C284.66,642.97 309.03,654.03 339.03,654.03 C361.16,654.03 380.19,647 396.13,632.94 C412.06,618.87 423.5,596.75 430.44,566.56 Z M563.75,564.59 C563.75,538.34 570.22,512.94 583.16,488.38 C596.09,463.81 614.42,445.06 638.14,432.13 C661.86,419.19 688.34,412.72 717.59,412.72 C762.78,412.72 799.81,427.39 828.69,456.73 C857.56,486.08 872,523.16 872,567.97 C872,613.16 857.42,650.61 828.27,680.33 C799.11,710.05 762.41,724.91 718.16,724.91 C690.78,724.91 664.67,718.72 639.83,706.34 C614.98,693.97 596.09,675.83 583.16,651.92 C570.22,628.02 563.75,598.91 563.75,564.59 Z M644.75,568.81 C644.75,598.44 651.78,621.12 665.84,636.87 C679.91,652.62 697.25,660.5 717.87,660.5 C738.5,660.5 755.8,652.62 769.77,636.87 C783.73,621.12 790.72,598.25 790.72,568.25 C790.72,539 783.73,516.5 769.77,500.75 C755.8,485 738.5,477.13 717.87,477.13 C697.25,477.13 679.91,485 665.84,500.75 C651.78,516.5 644.75,539.19 644.75,568.81 Z"/>
</svg>
